<?xml version="1.0" encoding="UTF-8" standalone="no"?>
<!DOCTYPE svg PUBLIC "-//W3C//DTD SVG 1.1//EN" "http://www.w3.org/Graphics/SVG/1.1/DTD/svg11.dtd">

<svg x="0px" height="1191.970325px" xmlns:xlink="http://www.w3.org/1999/xlink" y="0px" xmlns="http://www.w3.org/2000/svg" width="1685.199425px" version="1.1" viewBox="354.006469 166.432359 597.706426 170.704610">
    <defs></defs>
    <g dclass="DiaDecoratedSeparator">
        <g enabled="1" ID="2F1B9DCB-33B6-4918-BA07-BB1EEB2405A8" dclass="DiaConnectorStyle">
            <path d=" M 542.785156 237.000000 L 833.792053 237.000000" dclass="DiaConnectorStylizedPath" fill="none" stroke="#2D1F2E" stroke-opacity="1.000000" stroke-width="1.000000" stroke-linecap="round" stroke-linejoin="round"></path>
            <g dclass="DiaConnectorArrow">
                <path d=" M 813.739034 246.471299 C 813.739034 246.471299 813.655630 243.603939 819.515203 238.939998 C 819.515203 238.939998 821.886704 237.036823 819.300553 235.825536 C 816.714401 234.614248 813.235381 226.236015 813.735154 225.030542 C 814.128249 224.081862 819.683303 232.437807 824.744402 232.417457 C 827.687442 232.404860 833.792053 233.380673 833.792053 235.032869 C 832.267517 234.966006 830.839961 235.680181 829.329002 236.198612 C 826.236611 237.260669 823.470076 238.717121 820.474019 240.310206 C 818.522768 241.348037 813.709939 247.983955 813.739034 246.471299" dclass="DKDrawableShape" fill-opacity="1.000000" fill="#FFFFFF"></path>
                <path d=" M 814.192903 227.551958 C 816.210102 230.936780 818.810477 233.550253 821.670114 235.386565 C 822.662550 236.131749 823.079567 237.446723 823.075688 238.950657 C 825.127152 237.899260 827.146937 236.948641 829.327709 236.199581 C 830.838668 235.681150 832.266224 234.966975 833.790114 235.033838 C 833.790114 233.380673 827.686149 232.405829 824.743109 232.418426 C 819.682010 232.438776 814.126310 224.081862 813.733861 225.031511 C 813.588390 225.380362 813.786231 226.343577 814.192903 227.551958 Z M 814.192903 227.551958" dclass="DKDrawableShape" fill-opacity="1.000000" fill="#EBD6EB"></path>
                <path d=" M 811.622269 249.547000 C 811.911271 245.912169 816.470010 243.847166 818.420615 242.809335 C 821.417964 241.214311 824.463804 239.337300 827.555549 238.275243 C 829.066508 237.756812 832.284973 236.602698 833.792053 237.205434 C 831.189738 235.004767 825.595246 235.638513 822.692291 234.915617 C 818.143896 233.782821 816.930345 232.679095 814.381692 229.680917 C 813.229562 228.324275 811.177451 226.676924 811.297060 224.453000" dclass="DKDrawableShape" stroke="#000000" stroke-opacity="1.000000" stroke-width="1.000000" fill="#000000" stroke-linecap="butt" fill-opacity="0.000000" stroke-linejoin="miter"></path>
            </g>
        </g>
        <ConnectorEndPoint is_start="1" location="{542.78515625, 237}"></ConnectorEndPoint>
        <ConnectorEndPoint is_start="0" location="{833.79205322265625, 237}"></ConnectorEndPoint>
        <text style="font-family:Helvetica; font-size:14.000000; fill: #000000;">
            <textPath xlink:href="#AE618641-9EFF-4337-9985-C1701B220553" baseline-shift="0.000000" startOffset="0.000000%"></textPath>
        </text>
    </g>
    <g dclass="DiaDecoratedSeparator">
        <g enabled="1" ID="45CF594E-7E35-4F20-BC7C-DED763F50D9B" dclass="DiaConnectorStyle">
            <path d=" M 831.785156 280.000000 L 547.215332 280.000000" dclass="DiaConnectorStylizedPath" fill="none" stroke="#2D1F2E" stroke-opacity="1.000000" stroke-width="1.000000" stroke-linecap="round" stroke-linejoin="round"></path>
            <g dclass="DiaConnectorArrow">
                <path d=" M 567.268352 270.528701 C 567.268352 270.528701 567.351755 273.396061 561.492182 278.060002 C 561.492182 278.060002 559.120681 279.963177 561.706833 281.174464 C 564.292984 282.385752 567.772005 290.763985 567.272231 291.969458 C 566.879136 292.918138 561.324082 284.562193 556.262983 284.582543 C 553.319943 284.595140 547.215332 283.619327 547.215332 281.967131 C 548.739868 282.033994 550.167424 281.319819 551.678383 280.801388 C 554.770774 279.739331 557.537310 278.282879 560.533366 276.689794 C 562.484618 275.651963 567.297446 269.016045 567.268352 270.528701" dclass="DKDrawableShape" fill-opacity="1.000000" fill="#FFFFFF"></path>
                <path d=" M 566.814482 289.448042 C 564.797284 286.063220 562.196908 283.449747 559.337271 281.613435 C 558.344835 280.868251 557.927819 279.553277 557.931698 278.049343 C 555.880233 279.100740 553.860449 280.051359 551.679676 280.800419 C 550.168717 281.318850 548.741161 282.033025 547.217272 281.966162 C 547.217272 283.619327 553.321236 284.594171 556.264276 284.581574 C 561.325375 284.561224 566.881075 292.918138 567.273524 291.968489 C 567.418995 291.619638 567.221154 290.656423 566.814482 289.448042 Z M 566.814482 289.448042" dclass="DKDrawableShape" fill-opacity="1.000000" fill="#EBD6EB"></path>
                <path d=" M 569.385117 267.453000 C 569.096114 271.087831 564.537375 273.152834 562.586771 274.190665 C 559.589421 275.785689 556.543581 277.662700 553.451837 278.724757 C 551.940878 279.243188 548.722412 280.397302 547.215332 279.794566 C 549.817647 281.995233 555.412140 281.361487 558.315095 282.084383 C 562.863489 283.217179 564.077040 284.320905 566.625693 287.319083 C 567.777823 288.675725 569.829935 290.323076 569.710325 292.547000" dclass="DKDrawableShape" stroke="#000000" stroke-opacity="1.000000" stroke-width="1.000000" fill="#000000" stroke-linecap="butt" fill-opacity="0.000000" stroke-linejoin="miter"></path>
            </g>
        </g>
        <ConnectorEndPoint is_start="1" location="{831.78515625, 280}"></ConnectorEndPoint>
        <ConnectorEndPoint is_start="0" location="{547.21533203125, 280}"></ConnectorEndPoint>
        <text style="font-family:Helvetica; font-size:14.000000; fill: #000000;">
            <textPath xlink:href="#AE618641-9EFF-4337-9985-C1701B220553" baseline-shift="0.000000" startOffset="0.000000%"></textPath>
        </text>
    </g>
    <g ID="e100FC_088C5189-9F9D-4153-85D2-5A1893528EC2" dclass="DiaElement" element_type="e100FC">
        <path ID="e100FC_75E5E1EC-DB29-45FC-BDA7-74E5598AD7C8" d=" M 849.769007 211.002276 C 849.796383 210.952328 849.830857 210.904045 849.860261 210.854097 C 849.852150 210.596033 849.845052 210.334639 849.837954 210.086564 C 849.814634 210.389582 849.791314 210.695929 849.769007 211.002276 Z M 849.769007 211.002276" dclass="DKDrawableShape" fill-opacity="1.000000" fill="#A9AED4"></path>
        <path ID="e100FC_8DC2F719-CEA7-4441-B0EF-0054D8ECEDB0" d=" M 945.591701 214.075736 L 945.591701 214.075736 L 945.591701 214.075736 C 945.813752 212.307581 945.739735 210.331309 945.261159 208.125277 C 943.992729 202.279709 940.933695 197.689497 937.999375 194.133208 C 933.610062 188.813757 928.554595 185.027707 923.391651 182.328856 C 912.878186 176.832923 901.871950 176.350093 891.030985 178.949048 C 886.426718 180.052897 881.861995 181.561323 877.271923 182.810020 C 873.616697 183.805648 869.913816 184.383379 866.285966 185.628746 C 853.997105 189.844349 848.817939 203.070550 849.990044 210.647646 C 849.946445 210.715908 849.903860 210.784170 849.862289 210.852432 C 850.541624 234.436162 849.566221 301.031687 849.566221 301.031687 C 849.566221 301.031687 854.566935 309.113256 867.049457 318.112201 C 888.702997 333.732572 908.174554 340.565444 942.504277 302.418573 C 942.213278 288.736181 942.173735 234.276329 944.305021 218.429527 C 944.932645 217.149196 945.386886 215.702372 945.591701 214.075736 Z M 945.591701 214.075736" dclass="DKDrawableShape" fill-opacity="1.000000" fill="#A9AED4"></path>
        <path ID="e100FC_2AAF37EC-BD39-4A92-BB92-5178577C74B2" d=" M 849.769007 211.002276 C 849.796383 210.952328 849.830857 210.904045 849.860261 210.854097 C 849.852150 210.596033 849.845052 210.334639 849.837954 210.086564 C 849.814634 210.389582 849.791314 210.695929 849.769007 211.002276 Z M 849.769007 211.002276" dclass="DKDrawableShape" fill-opacity="1.000000" fill="#7E89BE"></path>
        <path ID="e100FC_8694C025-3B41-4476-A987-3D53781A29A5" d=" M 945.259131 208.125277 C 943.989688 202.279709 940.931668 197.689497 937.997347 194.133208 C 933.608034 188.813757 928.552567 185.027707 923.389623 182.328856 C 918.794482 179.928027 914.106059 178.482868 909.377078 177.835210 C 913.316205 229.697772 913.392250 282.985513 901.523158 330.236220 C 913.023179 328.629562 926.054238 320.697837 942.502249 302.420238 C 942.211250 288.737846 942.171707 234.277994 944.302993 218.431192 C 944.932645 217.149196 945.386886 215.702372 945.591701 214.077401 C 945.811724 212.309246 945.737707 210.331309 945.259131 208.125277 Z M 945.259131 208.125277" dclass="DKDrawableShape" fill-opacity="1.000000" fill="#7E89BE"></path>
        <path ID="e100FC_D7C82FCE-6EBD-4918-9380-0C877C5F607F" d=" M 850.562916 212.827039 C 851.992561 216.399978 854.491904 218.744199 856.740806 220.608920 C 859.873857 223.209541 863.219834 225.095906 866.591159 226.627641 C 882.948930 234.064883 900.684636 233.808483 917.426687 230.916500 C 924.178463 229.751050 931.220223 228.522331 937.709390 225.039298 C 942.276142 222.588522 947.257592 217.327344 945.259131 208.125277 C 943.990702 202.279709 940.932682 197.689497 937.998361 194.133208 C 933.609048 188.813757 928.553581 185.027707 923.390637 182.328856 C 912.877173 176.832923 901.870936 176.350093 891.029971 178.949048 C 886.425705 180.052897 881.860981 181.561323 877.270909 182.810020 C 873.615683 183.805648 869.912802 184.383379 866.284952 185.628746 C 852.707383 190.287220 847.808062 205.940889 850.562916 212.827039 Z M 850.562916 212.827039" dclass="DKDrawableShape" fill-opacity="1.000000" fill="#A9AED4"></path>
        <path ID="e100FC_F671B5D4-BA2F-4553-88E9-6B2AB243A641" d=" M 945.259131 208.125277 C 943.989688 202.279709 940.931668 197.689497 937.997347 194.133208 C 933.608034 188.813757 928.552567 185.027707 923.389623 182.328856 C 921.500667 181.339887 919.594475 180.520742 917.676114 179.848110 C 921.283686 184.351745 923.514337 191.063077 923.169600 201.237463 C 922.155668 206.232252 921.141735 212.891971 918.099938 216.221830 C 898.835223 227.876339 877.542643 226.211409 858.277928 212.891971 C 855.616355 210.705918 852.954783 205.972523 851.397382 200.501564 C 849.617931 205.185011 849.365462 209.835160 850.562916 212.828704 C 851.992561 216.401643 854.491904 218.745864 856.740806 220.610585 C 859.873857 223.211206 863.219834 225.097571 866.591159 226.629306 C 882.948930 234.066548 900.684636 233.810148 917.426687 230.918165 C 924.177449 229.752715 931.220223 228.523996 937.709390 225.040963 C 942.275128 222.590187 947.256578 217.327344 945.259131 208.125277 Z M 945.259131 208.125277" dclass="DKDrawableShape" fill-opacity="1.000000" fill="#7E89BE"></path>
        <path ID="e100FC_F97D0A97-06E9-48BB-8AAA-1FA46CD5134F" d=" M 942.549904 209.080947 L 942.549904 209.080947 L 942.549904 209.080947 C 942.771955 207.312791 942.697938 205.336520 942.219362 203.130488 C 940.950932 197.284920 937.891898 192.694708 934.957578 189.138418 C 930.568265 183.818968 925.512798 180.032918 920.349854 177.334066 C 909.836389 171.838133 898.830153 171.355304 887.989188 173.954259 C 883.384921 175.058107 878.820198 176.566534 874.230126 177.815231 C 870.574900 178.810859 866.872019 179.388590 863.244168 180.633957 C 850.955308 184.849559 845.776141 198.075761 846.948247 205.652856 C 846.904648 205.721119 846.862063 205.789381 846.820492 205.857643 C 847.499826 229.441373 846.524423 296.036898 846.524423 296.036898 C 846.524423 296.036898 851.525138 304.118467 864.007660 313.117412 C 885.661199 328.737783 905.132757 335.570654 939.462480 297.423784 C 939.171481 283.741391 939.131938 229.281539 941.263223 213.434738 C 941.890848 212.154407 942.345089 210.707583 942.549904 209.080947 Z M 942.549904 209.080947" dclass="DKDrawableShape" stroke="#000000" stroke-opacity="1.000000" stroke-width="1.000000" fill="#000000" stroke-linecap="butt" fill-opacity="0.000000" stroke-linejoin="miter"></path>
        <path ID="e100FC_CE2D6DA0-39E8-4000-984B-498D9AFB6BCE" d=" M 847.521119 207.832249 C 848.950764 211.405189 851.450107 213.751075 853.699009 215.614131 C 856.832060 218.214751 860.178037 220.101117 863.549362 221.632852 C 879.907133 229.070093 897.642838 228.813694 914.384890 225.921711 C 921.136666 224.756260 928.178426 223.527542 934.667593 220.044509 C 939.234345 217.593733 944.215795 212.332555 942.217334 203.130488 C 940.948904 197.284920 937.890884 192.694708 934.956564 189.138418 C 930.567251 183.818968 925.511784 180.032918 920.348840 177.334066 C 909.835375 171.838133 898.829139 171.355304 887.988174 173.954259 C 883.383907 175.058107 878.819184 176.566534 874.229112 177.815231 C 870.573886 178.810859 866.871005 179.388590 863.243155 180.633957 C 849.665586 185.292431 844.766265 200.946100 847.521119 207.832249 Z M 847.521119 207.832249" dclass="DKDrawableShape" stroke="#000000" stroke-opacity="1.000000" stroke-width="1.000000" fill="#000000" stroke-linecap="butt" fill-opacity="0.000000" stroke-linejoin="miter"></path>
        <path ID="contour_03ED6ACD-F49D-4A5D-848A-B7B55B7AD3FA" d=" M 941.784385 212.199360 C 941.857388 212.001234 941.929377 211.801442 941.993255 211.596656 C 942.050035 211.420173 942.098704 211.240361 942.148386 211.058883 C 942.208208 210.845772 942.264989 210.630996 942.314671 210.409561 C 942.355229 210.224754 942.386661 210.033287 942.420120 209.845150 C 942.460678 209.617054 942.505291 209.390624 942.535709 209.154204 C 942.538750 209.129230 942.544834 209.105921 942.547876 209.080947 C 942.566127 208.947752 942.569168 208.806233 942.580322 208.673039 C 942.608712 208.375017 942.641158 208.078659 942.651297 207.768982 C 942.658394 207.594165 942.650283 207.407692 942.652311 207.227880 C 942.653325 206.924863 942.659408 206.623511 942.644199 206.310504 C 942.631018 206.069089 942.599586 205.817685 942.578294 205.571275 C 942.554973 205.303221 942.539764 205.043492 942.503263 204.767114 C 942.433301 204.236001 942.337992 203.691569 942.217334 203.130488 C 940.948904 197.284920 937.889870 192.694708 934.955550 189.138418 C 930.566237 183.818968 925.510770 180.032918 920.347826 177.334066 C 909.834361 171.838133 898.829139 171.355304 887.987160 173.954259 C 883.382893 175.058107 878.818170 176.566534 874.228098 177.815231 C 870.572872 178.810859 866.869991 179.388590 863.242141 180.633957 C 862.429981 180.912000 861.654322 181.234997 860.904013 181.587962 C 860.654585 181.704507 860.425436 181.842696 860.183107 181.967566 C 859.695405 182.218970 859.209732 182.472040 858.748392 182.753413 C 858.477672 182.918241 858.224189 183.098053 857.963609 183.272871 C 857.560064 183.542589 857.157532 183.812308 856.776294 184.103671 C 856.514699 184.301797 856.268314 184.509914 856.016858 184.718030 C 855.662996 185.011057 855.315217 185.305750 854.982647 185.613762 C 854.741331 185.836863 854.510155 186.064958 854.279992 186.296383 C 853.966687 186.611055 853.662507 186.930721 853.368467 187.260378 C 853.152499 187.503457 852.940588 187.746537 852.734759 187.992947 C 852.455928 188.330927 852.189264 188.672238 851.930711 189.020208 C 851.742120 189.273278 851.553528 189.524682 851.376090 189.782746 C 851.126663 190.144036 850.894472 190.510320 850.666337 190.878270 C 850.508164 191.133004 850.345935 191.384409 850.196887 191.642473 C 849.971794 192.033731 849.767993 192.429984 849.565207 192.826238 C 849.441507 193.067653 849.309696 193.305737 849.195121 193.547152 C 848.978140 194.005008 848.787521 194.464529 848.600957 194.924049 C 848.525926 195.107191 848.438728 195.290334 848.368766 195.475141 C 848.125423 196.112809 847.910469 196.750477 847.723905 197.383150 C 847.670167 197.566293 847.633665 197.744440 847.583983 197.925918 C 847.461297 198.378778 847.341653 198.829974 847.248371 199.276176 C 847.195647 199.524250 847.162187 199.767330 847.118588 200.012074 C 847.053696 200.383354 846.987791 200.751303 846.943178 201.114258 C 846.910732 201.375652 846.893495 201.627056 846.872202 201.881791 C 846.843812 202.218106 846.817450 202.549427 846.807311 202.874089 C 846.799199 203.128823 846.802241 203.375233 846.805283 203.621642 C 846.809338 203.931319 846.818464 204.236001 846.838743 204.532359 C 846.855979 204.772109 846.879300 205.003534 846.907690 205.233294 C 846.924927 205.371483 846.927969 205.519662 846.949261 205.654521 C 846.905662 205.722784 846.863077 205.791046 846.821506 205.859308 C 847.500840 229.443038 846.525437 296.038563 846.525437 296.038563 C 846.525437 296.038563 851.526152 304.120132 864.008673 313.119077 C 885.662213 328.739448 905.132757 335.572319 939.462480 297.425449 C 939.172495 283.743056 939.132952 229.283204 941.263223 213.436403 C 941.288572 213.383125 941.309864 213.326518 941.335213 213.273240 C 941.422411 213.088433 941.503525 212.900296 941.583626 212.710494 C 941.652574 212.540671 941.719493 212.372513 941.784385 212.199360 Z M 941.784385 212.199360" dclass="DKDrawableShape" fill-opacity="0.000000" fill="#000000"></path>
        <Hotspots>
            <StickySpot id_sticky_spot="CE18ED99-A72B-48BD-9C79-2BC7E2777626_32768" relative_location="{-0.500000,0.000000}" position_kind="0"></StickySpot>
            <StickySpot id_sticky_spot="CE18ED99-A72B-48BD-9C79-2BC7E2777626_32769" relative_location="{0.500000,0.000000}" position_kind="0"></StickySpot>
            <StickySpot id_sticky_spot="CE18ED99-A72B-48BD-9C79-2BC7E2777626_32770" relative_location="{0.000000,0.500000}" position_kind="0"></StickySpot>
            <StickySpot id_sticky_spot="CE18ED99-A72B-48BD-9C79-2BC7E2777626_32771" relative_location="{0.000000,-0.500000}" position_kind="0"></StickySpot>
        </Hotspots>
        <g>
            <text style="font-family:Helvetica; font-size:14.000000; fill: #000000;" transform="matrix(1.000000,0.000000,-0.000000,1.000000,894.589900,219.253438)" text-anchor="middle">
                <tspan style="font-weight: bold;"></tspan>
            </text>
            <text style="font-family:Helvetica; font-size:14.000000; fill: #000000;" transform="matrix(1.000000,0.000000,-0.000000,1.000000,894.589900,236.253438)" text-anchor="middle">
                <tspan style="font-weight: bold;"></tspan>
            </text>
            <text style="font-family:Helvetica; font-size:14.000000; fill: #000000;" transform="matrix(1.000000,0.000000,-0.000000,1.000000,894.589900,253.253438)" text-anchor="middle">
                <tspan style="font-weight: bold;">Async
</tspan>
            </text>
            <text style="font-family:Helvetica; font-size:14.000000; fill: #000000;" transform="matrix(1.000000,0.000000,-0.000000,1.000000,894.589900,270.253438)" text-anchor="middle">
                <tspan style="font-weight: bold;">Write
</tspan>
            </text>
            <text style="font-family:Helvetica; font-size:14.000000; fill: #000000;" transform="matrix(1.000000,0.000000,-0.000000,1.000000,894.589900,287.253438)" text-anchor="middle">
                <tspan style="font-weight: bold;">Journal</tspan>
            </text>
        </g>
    </g>
    <g ID="e70TEXT_1A8686B6-B1A5-4FAD-8357-8D45D001E21B" dclass="DiaText" element_type="e70TEXT">
        <path ID="contour_29923275-7CAF-400D-8A67-9BF711D39350" d=" M 529.211115 209.000000 L 802.359197 209.000000 L 802.359197 233.000000 L 529.211115 233.000000 Z M 529.211115 209.000000" dclass="DKDrawableShape" fill-opacity="0.000000" fill="#000000"></path>
        <Hotspots>
            <StickySpot id_sticky_spot="1A49DA79-EC3B-4C03-8CCF-74538A33A1E3_32768" relative_location="{-0.500000,0.000000}" position_kind="0"></StickySpot>
            <StickySpot id_sticky_spot="1A49DA79-EC3B-4C03-8CCF-74538A33A1E3_32769" relative_location="{0.500000,0.000000}" position_kind="0"></StickySpot>
            <StickySpot id_sticky_spot="1A49DA79-EC3B-4C03-8CCF-74538A33A1E3_32770" relative_location="{0.000000,0.500000}" position_kind="0"></StickySpot>
            <StickySpot id_sticky_spot="1A49DA79-EC3B-4C03-8CCF-74538A33A1E3_32771" relative_location="{0.000000,-0.500000}" position_kind="0"></StickySpot>
        </Hotspots>
        <g>
            <text style="font-family:Helvetica; font-size:14.000000; fill: #000000;" transform="matrix(1.000000,0.000000,-0.000000,1.000000,665.785156,225.250000)" text-anchor="middle">
                <tspan style="font-weight: bold;">EventAdapter.toJournal(e, manifest)</tspan>
            </text>
        </g>
    </g>
    <g ID="e70TEXT_DF54FD74-14DC-4E36-9CB2-BF2FFC8AE9D4" dclass="DiaText" element_type="e70TEXT">
        <path ID="contour_BBE6AF3A-AB36-4FD2-BA0D-C4211C665312" d=" M 560.094519 282.500000 L 853.475793 282.500000 L 853.475793 311.500000 L 560.094519 311.500000 Z M 560.094519 282.500000" dclass="DKDrawableShape" fill-opacity="0.000000" fill="#000000"></path>
        <Hotspots>
            <StickySpot id_sticky_spot="BCF27902-492C-4766-B7F6-6C5E7A1A2C62_32768" relative_location="{-0.500000,0.000000}" position_kind="0"></StickySpot>
            <StickySpot id_sticky_spot="BCF27902-492C-4766-B7F6-6C5E7A1A2C62_32769" relative_location="{0.500000,0.000000}" position_kind="0"></StickySpot>
            <StickySpot id_sticky_spot="BCF27902-492C-4766-B7F6-6C5E7A1A2C62_32770" relative_location="{0.000000,0.500000}" position_kind="0"></StickySpot>
            <StickySpot id_sticky_spot="BCF27902-492C-4766-B7F6-6C5E7A1A2C62_32771" relative_location="{0.000000,-0.500000}" position_kind="0"></StickySpot>
        </Hotspots>
        <g>
            <text style="font-family:Helvetica; font-size:14.000000; fill: #000000;" transform="matrix(1.000000,0.000000,-0.000000,1.000000,706.785156,301.250000)" text-anchor="middle">
                <tspan style="font-weight: bold;">EventAdapter.fromJournal(e, manifest)</tspan>
            </text>
        </g>
    </g>
    <g ID="e41_B97CC602-38AE-4B95-9A7B-22A8312C19AF" element_type="e41" dclass="DiaElement">
        <path ID="e41_369397EC-F1CE-49D6-AB8E-B26C56F1551E" d=" M 380.421917 226.325725 C 362.597684 227.121103 364.113218 270.801294 369.504316 291.202543 C 376.279549 316.839358 433.280776 304.281872 455.065835 302.863715 C 492.943956 300.397842 513.093128 315.403035 511.904578 273.297449 C 510.992857 240.976631 514.333830 222.702112 478.035432 222.731382 C 448.216380 222.755607 418.335143 227.061550 388.339564 226.497316 C 385.701685 226.447859 383.061803 226.390324 380.421917 226.325725" dclass="DKDrawableShape" fill-opacity="1.000000" fill="#FFFFFE"></path>
        <path ID="e41_2A1774E5-4E87-41C7-80CB-BDC7DB5AFC65" d=" M 511.904576 273.297449 C 511.207498 248.589248 512.993829 232.091207 497.661040 225.702947 C 498.883692 242.111155 494.005125 257.317212 485.175755 271.859107 C 482.237980 275.800670 477.340355 278.758104 474.402582 280.729390 C 440.431130 292.425891 402.380497 291.797057 367.696917 282.601759 C 368.219477 285.744917 368.831306 288.654911 369.505319 291.202544 C 376.280552 316.839360 433.281779 304.281871 455.066838 302.863717 C 492.943955 300.397841 513.095135 315.403035 511.904576 273.297449 Z M 511.904576 273.297449" dclass="DKDrawableShape" fill-opacity="1.000000" fill="#DAEBEC"></path>
        <path ID="contour_42493BC8-8FB7-4661-9566-8BE5F81735C9" d=" M 374.546373 220.412876 C 356.722142 221.208253 358.236662 264.888445 363.628768 285.290703 C 370.404003 310.928527 427.406233 298.369023 449.190289 296.949858 C 487.069411 294.484992 507.218581 309.491194 506.029030 267.384600 C 505.117311 235.063781 508.459288 216.790271 472.160887 216.818533 C 442.339830 216.842757 412.459596 221.148700 382.465019 220.584466 C 379.825136 220.535008 377.186255 220.476464 374.546373 220.412876" dclass="DKDrawableShape" stroke="#000000" stroke-opacity="1.000000" stroke-width="1.000000" fill="#000000" stroke-linecap="butt" fill-opacity="0.000000" stroke-linejoin="miter"></path>
        <Hotspots>
            <StickySpot id_sticky_spot="C45F5706-37CA-41D0-AEF5-4B25DBF6142E_32768" relative_location="{-0.500000,0.000000}" position_kind="0"></StickySpot>
            <StickySpot id_sticky_spot="C45F5706-37CA-41D0-AEF5-4B25DBF6142E_32769" relative_location="{0.500000,0.000000}" position_kind="0"></StickySpot>
            <StickySpot id_sticky_spot="C45F5706-37CA-41D0-AEF5-4B25DBF6142E_32770" relative_location="{0.000000,0.500000}" position_kind="0"></StickySpot>
            <StickySpot id_sticky_spot="C45F5706-37CA-41D0-AEF5-4B25DBF6142E_32771" relative_location="{0.000000,-0.500000}" position_kind="0"></StickySpot>
        </Hotspots>
        <g>
            <text style="font-family:Helvetica; font-size:14.000000; fill: #000000;" transform="matrix(1.000000,0.000000,-0.000000,1.000000,433.042656,263.293966)" text-anchor="middle">
                <tspan style="font-weight: bold;">PersistentActor</tspan>
            </text>
        </g>
    </g>
</svg>